<?xml version="1.0" encoding="UTF-8"?>
<!-- Generator: visioncortex VTracer 0.6.3 -->
<svg version="1.1" xmlns="http://www.w3.org/2000/svg" width="1280" height="465">
<path d="M0 0 C0.99 0 1.98 0 3 0 C2.88 2.04 2.76 4.08 2.62 6.12 C2.52 7.83 2.52 7.83 2.41 9.57 C2 13 1.09 15.73 0 19 C-0.68 21.62 -1.33 24.24 -1.95 26.87 C-2.13 27.62 -2.31 28.37 -2.5 29.15 C-2.89 30.75 -3.27 32.35 -3.65 33.95 C-7.52 50.08 -11.52 66.17 -15.86 82.18 C-17.88 89.65 -19.8 97.13 -21.66 104.63 C-21.89 105.57 -22.12 106.5 -22.36 107.46 C-23.31 111.32 -24.27 115.18 -25.22 119.04 C-29.75 137.43 -29.75 137.43 -32.06 144.67 C-34.72 153.03 -36.59 161.58 -38.56 170.12 C-44.52 195.79 -44.52 195.79 -47.44 204.23 C-49.22 209.43 -50.51 214.74 -51.85 220.05 C-56.6 238.75 -62.41 256.98 -68.7 275.21 C-69.89 278.66 -71.02 282.12 -72.15 285.59 C-73.6 289.95 -75.24 294 -77.25 298.12 C-79.21 302.17 -81.11 306.21 -82.84 310.36 C-89.96 327.34 -99.65 341.4 -112 355 C-111.67 355.66 -111.34 356.32 -111 357 C-109.58 357 -109.58 357 -108.14 357 C-52.29 356.98 3.55 356.96 59.4 356.95 C66.1 356.95 72.8 356.95 79.5 356.95 C80.16 356.94 80.83 356.94 81.52 356.94 C103.14 356.94 124.77 356.93 146.39 356.92 C169.23 356.91 192.08 356.91 214.92 356.91 C228.61 356.9 242.3 356.9 255.99 356.89 C265.37 356.89 274.74 356.89 284.12 356.89 C289.54 356.89 294.95 356.89 300.37 356.88 C305.32 356.88 310.27 356.88 315.22 356.88 C317.02 356.88 318.82 356.88 320.62 356.88 C323.05 356.87 325.48 356.87 327.91 356.88 C328.62 356.87 329.34 356.87 330.07 356.87 C334.89 356.89 334.89 356.89 336 358 C336.1 360.59 336.13 363.15 336.11 365.73 C336.11 366.54 336.11 367.35 336.11 368.19 C336.11 370.88 336.11 373.56 336.1 376.25 C336.1 378.11 336.09 379.97 336.09 381.83 C336.09 386.74 336.08 391.64 336.07 396.54 C336.06 401.54 336.05 406.54 336.05 411.54 C336.04 421.36 336.02 431.18 336 441 C248.98 441.01 161.97 441.03 37.45 441.04 C35.96 441.04 34.47 441.04 32.99 441.04 C1.79 441.05 -29.41 441.05 -60.61 441.05 C-76.28 441.05 -91.95 441.05 -107.63 441.05 C-109.99 441.05 -112.35 441.06 -114.72 441.06 C-151.14 441.06 -187.55 441.06 -223.97 441.07 C-224.76 441.07 -225.54 441.07 -226.35 441.07 C-238.98 441.07 -251.61 441.07 -264.24 441.08 C-300.61 441.08 -336.98 441.09 -373.35 441.09 C-374.1 441.09 -374.85 441.09 -375.62 441.09 C-392.02 441.09 -408.42 441.09 -424.83 441.09 C-431.43 441.09 -438.03 441.09 -444.63 441.09 C-445.71 441.09 -445.71 441.09 -446.82 441.09 C-470.12 441.1 -493.42 441.1 -516.72 441.11 C-540.83 441.11 -564.94 441.12 -589.05 441.11 C-602.96 441.11 -616.88 441.11 -630.79 441.12 C-640.07 441.12 -649.35 441.12 -658.62 441.12 C-663.92 441.12 -669.22 441.12 -674.51 441.12 C-679.32 441.13 -684.13 441.13 -688.94 441.12 C-690.68 441.12 -692.42 441.12 -694.16 441.13 C-696.5 441.13 -698.84 441.13 -701.18 441.12 C-703.14 441.12 -703.14 441.12 -705.13 441.12 C-708 441 -708 441 -709 440 C-709.11 437.49 -709.15 435 -709.15 432.48 C-709.15 431.7 -709.15 430.91 -709.16 430.1 C-709.16 427.48 -709.17 424.87 -709.17 422.25 C-709.17 420.44 -709.17 418.63 -709.18 416.82 C-709.18 413.03 -709.19 409.23 -709.19 405.43 C-709.19 400.55 -709.2 395.67 -709.22 390.8 C-709.23 387.06 -709.23 383.32 -709.23 379.58 C-709.23 377.78 -709.23 375.98 -709.24 374.18 C-709.25 371.67 -709.25 369.16 -709.24 366.65 C-709.25 365.9 -709.25 365.15 -709.26 364.38 C-709.23 359.23 -709.23 359.23 -707 357 C-704.09 356.8 -701.27 356.74 -698.35 356.75 C-697.44 356.75 -696.53 356.75 -695.59 356.75 C-692.51 356.74 -689.42 356.75 -686.33 356.76 C-684.11 356.76 -681.89 356.76 -679.67 356.75 C-673.54 356.75 -667.41 356.76 -661.28 356.77 C-655.36 356.78 -649.44 356.77 -643.51 356.77 C-631.39 356.77 -619.27 356.78 -607.15 356.79 C-595.15 356.8 -583.14 356.81 -571.14 356.81 C-570.39 356.81 -569.64 356.81 -568.88 356.81 C-565.09 356.81 -561.3 356.81 -557.52 356.81 C-530.67 356.82 -503.83 356.83 -476.99 356.85 C-450.91 356.87 -424.83 356.88 -398.75 356.89 C-397.54 356.89 -397.54 356.89 -396.31 356.89 C-388.24 356.89 -380.18 356.9 -372.11 356.9 C-355.67 356.9 -339.23 356.91 -322.79 356.92 C-321.66 356.92 -321.66 356.92 -320.5 356.92 C-270 356.93 -219.5 356.97 -169 357 C-170.11 355.55 -171.22 354.11 -172.33 352.66 C-172.95 351.86 -173.57 351.05 -174.21 350.22 C-176.05 347.85 -176.05 347.85 -178.67 345.39 C-181.55 342.43 -183.36 339.31 -185.31 335.69 C-185.7 334.98 -186.08 334.28 -186.48 333.55 C-187.67 331.37 -188.83 329.19 -190 327 C-190.34 326.37 -190.69 325.73 -191.04 325.08 C-197.65 312.89 -202.39 300.05 -207 287 C-207.37 285.97 -207.73 284.93 -208.11 283.86 C-215.04 264.18 -220.61 244.15 -226 224 C-226.32 222.8 -226.64 221.6 -226.98 220.36 C-231.1 204.89 -234.9 189.35 -238.65 173.79 C-240.7 165.33 -242.78 156.89 -244.92 148.45 C-247.27 139.19 -249.56 129.92 -251.5 120.56 C-251.67 119.76 -251.84 118.95 -252.02 118.12 C-252.82 114.13 -253.19 110.93 -252 107 C-248.11 110.57 -245.7 113.99 -243.31 118.69 C-241.1 123.17 -241.1 123.17 -238 127 C-236.78 129.04 -235.6 131.11 -234.44 133.19 C-233.71 134.47 -232.99 135.74 -232.26 137.02 C-231.15 138.97 -230.05 140.91 -228.96 142.87 C-223.8 152.06 -217.9 160.18 -211.11 168.25 C-208.38 171.49 -205.83 174.84 -203.33 178.26 C-200.03 182.58 -195.9 186.01 -191.75 189.47 C-190 191 -190 191 -188.21 192.9 C-185.47 195.51 -182.44 197.49 -179.25 199.5 C-178.31 200.09 -178.31 200.09 -177.35 200.7 C-175.57 201.81 -173.79 202.91 -172 204 C-170.89 204.68 -170.89 204.68 -169.76 205.37 C-159.2 211.2 -146.04 212.68 -134.38 209.84 C-130.43 208.44 -126.89 206.36 -123.29 204.24 C-121 203 -121 203 -119 203 C-118.67 202.01 -118.34 201.02 -118 200 C-117.3 199.58 -116.59 199.16 -115.87 198.72 C-112.08 196.45 -109.22 193.56 -106.12 190.44 C-105.2 189.51 -105.2 189.51 -104.25 188.56 C-100.03 184.26 -96.43 179.82 -93.23 174.7 C-92.83 174.14 -92.42 173.58 -92 173 C-91.34 173 -90.68 173 -90 173 C-89.73 172.27 -89.46 171.55 -89.19 170.8 C-88.01 168.03 -86.66 165.69 -85 163.19 C-84.48 162.4 -83.97 161.61 -83.44 160.79 C-82.73 159.91 -82.73 159.91 -82 159 C-81.34 159 -80.68 159 -80 159 C-79.92 158.46 -79.84 157.92 -79.75 157.37 C-78.74 154.18 -76.86 151.76 -74.94 149.06 C-66.62 137 -59.94 123.88 -53 111 C-52.22 109.55 -52.22 109.55 -51.42 108.07 C-46.7 99.3 -42.19 90.48 -38.05 81.42 C-36.37 77.75 -34.62 74.12 -32.86 70.49 C-32.28 69.31 -31.71 68.13 -31.12 66.92 C-29.99 64.57 -28.85 62.23 -27.71 59.89 C-24.63 53.55 -21.76 47.16 -19.09 40.64 C-17.74 37.37 -16.27 34.19 -14.75 31 C-10.37 21.73 -6.19 12.36 -2 3 C-1.34 3 -0.68 3 0 3 C0 2.01 0 1.02 0 0 Z " fill="#004C6E" transform="translate(807,14)"/>
<path d="M0 0 C0.99 0 1.98 0 3 0 C2.88 2.04 2.76 4.08 2.62 6.12 C2.56 7.26 2.49 8.4 2.41 9.57 C2 13 1.09 15.73 0 19 C-0.68 21.62 -1.33 24.24 -1.95 26.87 C-2.13 27.62 -2.31 28.37 -2.5 29.15 C-2.89 30.75 -3.27 32.35 -3.65 33.95 C-7.52 50.08 -11.52 66.17 -15.86 82.18 C-17.88 89.65 -19.8 97.13 -21.66 104.63 C-21.89 105.57 -22.12 106.5 -22.36 107.46 C-23.31 111.32 -24.27 115.18 -25.22 119.04 C-29.75 137.43 -29.75 137.43 -32.06 144.67 C-34.72 153.03 -36.59 161.58 -38.56 170.12 C-44.52 195.79 -44.52 195.79 -47.44 204.23 C-49.22 209.43 -50.51 214.74 -51.85 220.05 C-56.6 238.75 -62.41 256.98 -68.7 275.21 C-69.89 278.66 -71.02 282.12 -72.15 285.59 C-73.6 289.95 -75.24 294 -77.25 298.12 C-79.21 302.17 -81.11 306.21 -82.84 310.36 C-91.8 331.7 -106 355.73 -127.81 366 C-133.8 367.88 -139.75 368.39 -146 368 C-146.65 367.97 -147.31 367.94 -147.98 367.9 C-156.88 366.72 -166.08 360.18 -172.12 353.74 C-173.62 351.69 -173.62 351.69 -174.73 349.89 C-176.03 347.81 -176.03 347.81 -178.38 345.73 C-181.38 342.61 -183.27 339.47 -185.31 335.69 C-185.7 334.98 -186.08 334.28 -186.48 333.55 C-187.67 331.37 -188.83 329.19 -190 327 C-190.52 326.05 -190.52 326.05 -191.04 325.08 C-197.65 312.89 -202.39 300.05 -207 287 C-207.37 285.97 -207.73 284.93 -208.11 283.86 C-215.04 264.18 -220.61 244.15 -226 224 C-226.32 222.8 -226.64 221.6 -226.98 220.36 C-231.1 204.89 -234.9 189.35 -238.65 173.79 C-240.7 165.33 -242.78 156.89 -244.92 148.45 C-247.27 139.19 -249.56 129.92 -251.5 120.56 C-251.76 119.35 -251.76 119.35 -252.02 118.12 C-252.82 114.13 -253.19 110.93 -252 107 C-248.11 110.57 -245.7 113.99 -243.31 118.69 C-241.1 123.17 -241.1 123.17 -238 127 C-236.78 129.04 -235.6 131.11 -234.44 133.19 C-233.71 134.47 -232.99 135.74 -232.26 137.02 C-231.15 138.97 -230.05 140.91 -228.96 142.87 C-223.8 152.06 -217.9 160.18 -211.11 168.25 C-208.38 171.49 -205.83 174.84 -203.33 178.26 C-200.03 182.58 -195.9 186.01 -191.75 189.47 C-190 191 -190 191 -188.21 192.9 C-185.47 195.51 -182.44 197.49 -179.25 199.5 C-178.62 199.9 -177.99 200.29 -177.35 200.7 C-175.57 201.81 -173.79 202.91 -172 204 C-171.26 204.45 -170.52 204.9 -169.76 205.37 C-159.2 211.2 -146.04 212.68 -134.38 209.84 C-130.43 208.44 -126.89 206.36 -123.29 204.24 C-121 203 -121 203 -119 203 C-118.67 202.01 -118.34 201.02 -118 200 C-117.3 199.58 -116.59 199.16 -115.87 198.72 C-112.08 196.45 -109.22 193.56 -106.12 190.44 C-105.51 189.82 -104.89 189.2 -104.25 188.56 C-100.03 184.26 -96.43 179.82 -93.23 174.7 C-92.83 174.14 -92.42 173.58 -92 173 C-91.34 173 -90.68 173 -90 173 C-89.73 172.27 -89.46 171.55 -89.19 170.8 C-88.01 168.03 -86.66 165.69 -85 163.19 C-84.48 162.4 -83.97 161.61 -83.44 160.79 C-82.96 160.2 -82.49 159.61 -82 159 C-81.34 159 -80.68 159 -80 159 C-79.88 158.19 -79.88 158.19 -79.75 157.37 C-78.74 154.18 -76.86 151.76 -74.94 149.06 C-66.62 137 -59.94 123.88 -53 111 C-52.48 110.03 -51.96 109.07 -51.42 108.07 C-46.7 99.3 -42.19 90.48 -38.05 81.42 C-36.37 77.75 -34.62 74.12 -32.86 70.49 C-32 68.72 -32 68.72 -31.12 66.92 C-29.99 64.57 -28.85 62.23 -27.71 59.89 C-24.63 53.55 -21.76 47.16 -19.09 40.64 C-17.74 37.37 -16.27 34.19 -14.75 31 C-10.37 21.73 -6.19 12.36 -2 3 C-1.34 3 -0.68 3 0 3 C0 2.01 0 1.02 0 0 Z " fill="#E3741B" transform="translate(807,14)"/>
<path d="M0 0 C1.18 0 1.18 0 2.39 0 C3.2 -0 4.02 -0.01 4.85 -0.01 C6.57 -0.02 8.29 -0.02 10 -0.01 C12.63 -0.01 15.26 -0.03 17.89 -0.06 C19.56 -0.06 21.23 -0.06 22.89 -0.06 C23.68 -0.07 24.47 -0.08 25.28 -0.09 C30.71 -0.04 30.71 -0.04 33.16 1.64 C34.81 4.25 35.56 6.98 36.46 9.93 C38.24 15.6 40.3 21.04 42.65 26.49 C46.38 35.24 49.07 44.25 51.66 53.4 C52.76 57.22 52.76 57.22 55.21 60.3 C55.97 62.31 56.66 64.34 57.3 66.38 C57.69 67.6 58.08 68.83 58.49 70.09 C58.89 71.39 59.3 72.69 59.71 73.99 C60.12 75.27 60.52 76.55 60.93 77.83 C62.77 83.64 64.56 89.44 66.21 95.3 C66.87 95.3 67.53 95.3 68.21 95.3 C68.55 94.28 68.88 93.25 69.23 92.19 C70.5 88.32 71.78 84.45 73.06 80.58 C73.61 78.92 74.16 77.25 74.7 75.59 C77.58 66.84 80.52 58.22 84.17 49.76 C85.51 46.59 86.6 43.4 87.65 40.12 C88.06 38.84 88.48 37.57 88.89 36.3 C89.11 35.65 89.32 35 89.54 34.33 C99.75 3.49 99.75 3.49 104.21 0.3 C106.97 0.02 109.51 -0.09 112.27 -0.06 C113.45 -0.06 113.45 -0.06 114.66 -0.06 C116.32 -0.06 117.99 -0.05 119.65 -0.03 C122.2 -0.01 124.75 -0.01 127.3 -0.02 C128.91 -0.01 130.53 -0.01 132.15 0 C132.91 0 133.67 0 134.46 0 C138.24 0.05 139.99 0.16 143.21 2.3 C143.58 4.6 143.58 4.6 143.57 7.52 C143.58 9.17 143.58 9.17 143.58 10.87 C143.57 12.08 143.56 13.3 143.55 14.56 C143.55 15.83 143.55 17.11 143.55 18.43 C143.55 21.94 143.53 25.45 143.51 28.96 C143.49 32.63 143.49 36.29 143.49 39.96 C143.48 46.9 143.46 53.85 143.43 60.79 C143.39 68.7 143.38 76.6 143.36 84.51 C143.33 100.77 143.28 117.04 143.21 133.3 C138.73 133.33 134.25 133.35 129.77 133.37 C128.49 133.37 127.21 133.38 125.89 133.39 C124.68 133.39 123.46 133.4 122.21 133.4 C120.52 133.41 120.52 133.41 118.8 133.42 C116.21 133.3 116.21 133.3 115.21 132.3 C115.11 129.14 115.08 125.99 115.1 122.83 C115.1 121.83 115.1 120.84 115.1 119.81 C115.1 116.51 115.1 113.2 115.11 109.89 C115.11 107.61 115.11 105.32 115.12 103.04 C115.12 97.01 115.13 90.98 115.14 84.95 C115.15 78.81 115.16 72.66 115.16 66.51 C115.17 54.44 115.19 42.37 115.21 30.3 C114.55 30.3 113.89 30.3 113.21 30.3 C113.12 30.87 113.02 31.43 112.93 32.01 C111.56 39.56 109.25 46.68 106.77 53.93 C106.38 55.1 105.98 56.28 105.57 57.49 C103.56 63.47 101.47 69.41 99.21 75.3 C98.54 77.09 97.87 78.89 97.21 80.68 C96.75 81.93 96.75 81.93 96.27 83.2 C95.39 85.78 94.61 88.34 93.86 90.95 C92.18 96.63 90 102.07 87.77 107.55 C84.37 116.06 81.5 124.43 79.21 133.3 C70.3 133.3 61.39 133.3 52.21 133.3 C51.53 131.23 50.85 129.16 50.15 127.03 C47.86 120.07 45.58 113.11 43.29 106.15 C41.91 101.94 40.52 97.74 39.14 93.53 C32.54 73.44 25.92 53.36 19.21 33.3 C18.28 38.79 18.07 44.07 18.1 49.64 C18.1 50.54 18.1 51.45 18.1 52.39 C18.1 55.37 18.1 58.35 18.11 61.33 C18.11 63.41 18.11 65.48 18.12 67.56 C18.12 73 18.13 78.45 18.14 83.9 C18.15 89.46 18.16 95.02 18.16 100.59 C18.17 111.49 18.19 122.4 18.21 133.3 C14.06 133.33 9.92 133.35 5.77 133.37 C4.59 133.37 3.4 133.38 2.18 133.39 C1.06 133.39 -0.07 133.4 -1.22 133.4 C-2.79 133.41 -2.79 133.41 -4.38 133.42 C-6.79 133.3 -6.79 133.3 -7.79 132.3 C-7.89 130.63 -7.92 128.94 -7.92 127.26 C-7.93 126.17 -7.93 125.08 -7.94 123.95 C-7.94 122.74 -7.94 121.53 -7.94 120.29 C-7.94 119.02 -7.94 117.76 -7.95 116.46 C-7.96 112.98 -7.96 109.5 -7.96 106.02 C-7.96 103.12 -7.96 100.22 -7.97 97.32 C-7.97 90.48 -7.98 83.64 -7.98 76.8 C-7.98 69.73 -7.99 62.66 -8 55.6 C-8.01 49.54 -8.02 43.48 -8.02 37.43 C-8.02 33.8 -8.02 30.18 -8.03 26.56 C-8.04 22.52 -8.04 18.49 -8.03 14.45 C-8.04 13.24 -8.05 12.03 -8.05 10.79 C-8.05 9.7 -8.04 8.6 -8.04 7.47 C-8.04 6.52 -8.04 5.56 -8.04 4.58 C-7.5 -0.39 -4.24 0.06 0 0 Z M16.21 27.3 C16.21 30.93 16.21 34.56 16.21 38.3 C16.54 38.3 16.87 38.3 17.21 38.3 C17.54 34.67 17.87 31.04 18.21 27.3 C17.55 27.3 16.89 27.3 16.21 27.3 Z " fill="#004C6F" transform="translate(402.79087829589844,208.6964569091797)"/>
<path d="M0 0 C13.77 -0.05 27.54 -0.08 41.31 -0.1 C47.7 -0.11 54.09 -0.13 60.49 -0.15 C66.65 -0.17 72.82 -0.18 78.98 -0.19 C81.34 -0.19 83.7 -0.2 86.05 -0.21 C89.34 -0.23 92.64 -0.23 95.93 -0.23 C96.91 -0.23 97.89 -0.24 98.9 -0.25 C100.24 -0.24 100.24 -0.24 101.62 -0.24 C102.39 -0.24 103.17 -0.24 103.98 -0.25 C106 0 106 0 109 2 C109 8.93 109 15.86 109 23 C69.89 23.5 69.89 23.5 30 24 C30 33.24 30 42.48 30 52 C32.17 52.03 34.34 52.05 36.58 52.08 C43.74 52.16 50.9 52.25 58.06 52.34 C62.4 52.39 66.74 52.45 71.09 52.5 C75.28 52.54 79.46 52.6 83.65 52.65 C85.25 52.67 86.85 52.69 88.45 52.71 C90.69 52.73 92.93 52.76 95.16 52.79 C97.08 52.82 97.08 52.82 99.03 52.84 C102 53 102 53 104 54 C104 61.26 104 68.52 104 76 C79.58 76.33 55.16 76.66 30 77 C30 87.56 30 98.12 30 109 C32.41 109.03 34.83 109.05 37.31 109.08 C45.27 109.16 53.23 109.25 61.19 109.34 C66.02 109.39 70.84 109.45 75.67 109.5 C80.32 109.54 84.98 109.6 89.64 109.65 C91.41 109.67 93.19 109.69 94.97 109.71 C97.46 109.73 99.94 109.76 102.43 109.79 C103.17 109.8 103.91 109.81 104.67 109.81 C109.77 109.89 109.77 109.89 112 111 C110.68 131.32 110.68 131.32 109 133 C107.58 133.1 106.16 133.12 104.74 133.12 C103.36 133.12 103.36 133.12 101.96 133.12 C100.43 133.12 100.43 133.12 98.88 133.11 C97.82 133.11 96.75 133.11 95.66 133.11 C92.13 133.11 88.59 133.11 85.06 133.1 C82.62 133.1 80.17 133.09 77.73 133.09 C71.29 133.09 64.85 133.08 58.4 133.07 C51.83 133.06 45.27 133.05 38.7 133.05 C25.8 133.04 12.9 133.02 0 133 C-1.26 130.48 -1.13 128.75 -1.13 125.92 C-1.13 124.84 -1.13 123.77 -1.14 122.66 C-1.13 121.48 -1.13 120.29 -1.13 119.07 C-1.13 117.83 -1.13 116.58 -1.13 115.3 C-1.14 111.88 -1.14 108.47 -1.13 105.05 C-1.13 101.48 -1.13 97.9 -1.14 94.33 C-1.14 88.33 -1.14 82.33 -1.13 76.33 C-1.12 69.39 -1.13 62.44 -1.13 55.5 C-1.14 49.55 -1.14 43.59 -1.13 37.64 C-1.13 34.08 -1.13 30.52 -1.14 26.96 C-1.14 22.99 -1.13 19.03 -1.13 15.06 C-1.13 13.88 -1.13 12.69 -1.14 11.47 C-1.13 10.4 -1.13 9.32 -1.13 8.21 C-1.13 7.27 -1.13 6.33 -1.13 5.36 C-1 3 -1 3 0 0 Z " fill="#004C70" transform="translate(260,209)"/>
<path d="M0 0 C2.55 1.97 4.94 4.02 7.3 6.21 C8.38 7.21 8.38 7.21 9.48 8.23 C17.76 16.67 22.86 29.35 23.92 41.09 C24 41.85 24.07 42.61 24.15 43.39 C24.36 47.33 24.3 51.27 24.3 55.21 C-18.27 55.71 -18.27 55.71 -61.7 56.21 C-62.77 61.54 -62.57 62.33 -60.27 66.9 C-57.7 72.06 -57.7 72.06 -57.7 74.21 C-57.13 74.48 -56.55 74.75 -55.95 75.02 C-53.7 76.21 -53.7 76.21 -51.95 77.71 C-43.88 83.09 -30.38 82.36 -21.14 80.59 C-16.41 78.69 -12.59 75.75 -9.54 71.63 C-6.73 69.46 -4.35 69.87 -0.85 69.92 C-0.19 69.92 0.48 69.93 1.16 69.93 C3.27 69.95 5.38 69.99 7.48 70.02 C8.92 70.04 10.35 70.05 11.78 70.06 C15.29 70.1 18.79 70.15 22.3 70.21 C19.76 81.89 12.48 91.17 2.61 97.9 C-4.5 102.09 -12.54 104.34 -20.7 105.21 C-22.19 105.71 -22.19 105.71 -23.7 106.21 C-42.71 106.92 -62.64 105.33 -77.39 92.4 C-86.42 83.81 -93.92 71.86 -94.86 59.02 C-95.22 38.83 -92.13 23.33 -79.38 6.98 C-71.46 -1.22 -60.6 -5.14 -49.7 -7.79 C-48.58 -8.08 -48.58 -8.08 -47.44 -8.38 C-31.37 -10.81 -13.76 -9.1 0 0 Z M-58.7 23.21 C-60.13 25.46 -60.13 25.46 -61.08 27.77 C-61.58 28.89 -61.58 28.89 -62.1 30.03 C-62.98 32.51 -62.98 32.51 -61.7 36.21 C-44.21 36.21 -26.72 36.21 -8.7 36.21 C-9.11 28.38 -9.11 28.38 -12.52 22.84 C-13.02 22.21 -13.52 21.58 -14.04 20.94 C-19.55 15.23 -26.63 13.16 -34.45 12.71 C-43.53 13.01 -52.76 16.26 -58.7 23.21 Z " fill="#004C6F" transform="translate(1035.703125,239.7890625)"/>
<path d="M0 0 C4.22 -0.07 8.43 -0.13 12.65 -0.16 C14.09 -0.18 15.52 -0.2 16.96 -0.23 C19.02 -0.26 21.08 -0.28 23.14 -0.29 C25.01 -0.32 25.01 -0.32 26.91 -0.34 C30 0 30 0 31.85 1.31 C33.77 4.13 34.65 7.34 35.69 10.56 C37.85 17.03 40.35 23.24 43.19 29.44 C45.6 34.72 47.73 39.83 49.23 45.45 C51.04 51.44 53.63 57.21 56 63 C59.86 72.42 63.24 82 66.62 91.61 C66.89 92.38 67.16 93.15 67.44 93.95 C67.97 95.46 68.5 96.97 69.03 98.49 C70.36 102.31 70.36 102.31 72 106 C74.85 104.58 75.02 102.51 76 99.63 C76.25 98.89 76.5 98.14 76.75 97.38 C78.71 91.62 80.76 85.94 83.06 80.31 C86.39 72.12 89.34 63.83 92.21 55.47 C94.17 49.83 96.22 44.38 98.81 39 C102.09 32.14 104.61 25.04 107.11 17.87 C111.99 4.01 111.99 4.01 116 0 C120.29 -0.46 124.62 -0.32 128.94 -0.31 C130.14 -0.33 131.35 -0.34 132.59 -0.36 C134.32 -0.36 134.32 -0.36 136.09 -0.36 C137.15 -0.37 138.21 -0.37 139.3 -0.37 C142.31 0.04 143.19 0.63 145 3 C136.36 24.63 136.36 24.63 131.34 34.28 C128.84 39.37 126.94 44.68 125 50 C124.6 51.08 124.21 52.16 123.8 53.27 C122.86 55.84 121.93 58.42 121 61 C120.34 61 119.68 61 119 61 C119.33 61.99 119.66 62.98 120 64 C119.34 64 118.68 64 118 64 C117.87 64.57 117.74 65.15 117.61 65.74 C117 67.99 116.22 70.02 115.29 72.16 C114.96 72.95 114.62 73.74 114.27 74.55 C113.91 75.38 113.56 76.21 113.19 77.06 C110.93 82.35 108.7 87.62 106.81 93.06 C105.65 96.41 104.29 99.49 102.65 102.63 C99.97 107.91 97.85 113.32 95.81 118.88 C95.13 120.71 94.45 122.54 93.77 124.37 C93.33 125.56 93.33 125.56 92.88 126.78 C92.03 128.92 91.06 130.95 90 133 C85.19 133.02 80.39 133.04 75.58 133.05 C73.95 133.06 72.31 133.07 70.68 133.08 C68.33 133.09 65.98 133.09 63.63 133.1 C62.53 133.11 62.53 133.11 61.41 133.11 C56.23 133.11 56.23 133.11 54 132 C52.84 129.54 51.79 127.1 50.77 124.59 C50.46 123.83 50.14 123.07 49.82 122.29 C48.81 119.84 47.81 117.39 46.81 114.94 C45.51 111.76 44.2 108.58 42.89 105.4 C42.57 104.62 42.25 103.83 41.92 103.02 C39.47 97.08 36.93 91.19 34.32 85.32 C32.15 80.43 30.2 75.47 28.34 70.45 C25.14 62.2 21.61 54.07 18.16 45.92 C16.26 41.44 14.36 36.96 12.47 32.47 C11.49 30.16 10.51 27.85 9.54 25.55 C8.14 22.26 6.76 18.98 5.38 15.69 C4.95 14.69 4.52 13.68 4.09 12.65 C3.69 11.72 3.3 10.79 2.9 9.82 C2.55 9.01 2.21 8.2 1.86 7.36 C0.97 4.92 0.44 2.55 0 0 Z M73 107 C74 109 74 109 74 109 Z " fill="#004C6F" transform="translate(99,209)"/>
<path d="M0 0 C4.36 -0.1 8.72 -0.17 13.08 -0.22 C14.56 -0.24 16.05 -0.27 17.53 -0.3 C19.66 -0.35 21.79 -0.37 23.93 -0.39 C25.21 -0.41 26.49 -0.43 27.81 -0.45 C31 0 31 0 32.85 1.79 C33.88 3.77 34.79 5.67 35.54 7.77 C35.81 8.5 36.07 9.24 36.35 9.99 C36.76 11.17 36.76 11.17 37.19 12.38 C37.49 13.2 37.78 14.03 38.09 14.88 C39.07 17.58 40.03 20.29 41 23 C42.37 26.84 43.74 30.67 45.12 34.5 C45.47 35.45 45.81 36.39 46.16 37.36 C47.79 41.86 49.48 46.25 51.56 50.56 C54.12 55.9 55.94 61.46 57.81 67.06 C58.28 68.48 58.28 68.48 58.77 69.92 C61 76.73 61 76.73 61 79 C61.99 79 62.98 79 64 79 C64.18 78.32 64.36 77.64 64.55 76.95 C65.36 73.96 66.18 70.98 67 68 C67.22 67.2 67.43 66.4 67.66 65.57 C70.43 55.77 74.55 46.43 78.5 37.06 C82.53 27.45 86.18 17.67 89.42 7.77 C90.18 5.46 90.97 3.21 92 1 C94.8 -0.4 97.12 -0.13 100.25 -0.13 C101.5 -0.13 102.75 -0.14 104.03 -0.14 C105.34 -0.13 106.65 -0.13 108 -0.12 C109.31 -0.13 110.62 -0.13 111.97 -0.14 C113.84 -0.13 113.84 -0.13 115.75 -0.13 C116.9 -0.13 118.05 -0.13 119.23 -0.13 C122 0 122 0 124 1 C123.31 5.42 121.76 9.39 120.06 13.5 C119.8 14.15 119.53 14.8 119.26 15.47 C118.51 17.32 117.75 19.16 117 21 C116.65 21.96 116.3 22.92 115.93 23.91 C115 26 115 26 113 27 C112.63 28.32 112.31 29.66 112 31 C111.11 33.33 110.19 35.63 109.25 37.94 C106.86 43.83 104.57 49.74 102.37 55.71 C101.24 58.42 100.01 60.98 98.67 63.59 C95.68 69.5 93.24 75.59 90.81 81.75 C90.37 82.85 89.94 83.94 89.49 85.07 C87.52 90.02 85.65 94.94 84 100 C83.34 100 82.68 100 82 100 C82.33 100.99 82.66 101.98 83 103 C82.01 103.5 82.01 103.5 81 104 C80.28 105.64 79.61 107.31 79 109 C74.21 109.1 69.43 109.17 64.64 109.22 C63.01 109.24 61.38 109.27 59.75 109.3 C57.41 109.35 55.07 109.37 52.73 109.39 C52 109.41 51.27 109.43 50.52 109.45 C45.47 109.46 45.47 109.46 43.11 107.19 C41.5 104.01 40.12 100.75 38.81 97.44 C38.19 95.91 37.58 94.37 36.96 92.84 C36.64 92.05 36.32 91.25 35.99 90.43 C34.36 86.42 32.68 82.43 31 78.44 C30.67 77.64 30.33 76.85 29.99 76.03 C27.34 69.75 24.61 63.52 21.84 57.3 C19.96 52.99 18.25 48.62 16.52 44.26 C14.44 39.05 12.28 33.89 10.1 28.73 C9.43 27.15 8.76 25.57 8.09 23.98 C7.07 21.56 6.04 19.13 5 16.71 C3.99 14.32 2.98 11.93 1.97 9.54 C1.66 8.81 1.34 8.08 1.02 7.33 C0.29 5.58 -0.36 3.79 -1 2 C-0.67 1.34 -0.34 0.68 0 0 Z " fill="#004C6F" transform="translate(824,234)"/>
<path d="M0 0 C9.82 7.69 13.96 15.89 16 28.12 C17 39.68 14.75 50.9 7.4 60.14 C-0.09 68.02 -9.13 73.1 -20.07 73.53 C-33.16 73.72 -42.44 70.33 -52 61.12 C-57.44 55.38 -61.37 49.94 -63 42.12 C-63.15 41.42 -63.3 40.71 -63.46 39.98 C-65.02 30.33 -62.74 19.63 -58 11.12 C-51.84 2.74 -51.84 2.74 -47.75 1.38 C-46.88 1.25 -46.88 1.25 -46 1.12 C-46 0.47 -46 -0.19 -46 -0.88 C-45.01 -0.88 -44.02 -0.88 -43 -0.88 C-43 -1.53 -43 -2.19 -43 -2.88 C-41.27 -3.53 -39.54 -4.17 -37.81 -4.81 C-36.85 -5.17 -35.89 -5.53 -34.89 -5.9 C-22.51 -10.06 -10.61 -7.47 0 0 Z " fill="#004C6F" transform="translate(681,134.875)"/>
<path d="M0 0 C1 1 1 1 1.11 3.59 C1.11 5.28 1.11 5.28 1.1 7 C1.09 8.83 1.09 8.83 1.09 10.69 C1.08 12.6 1.08 12.6 1.06 14.56 C1.06 15.85 1.05 17.13 1.05 18.45 C1.04 21.63 1.02 24.82 1 28 C-0.1 28.15 -1.2 28.29 -2.33 28.45 C-14.37 30.21 -24.68 32.92 -32.64 42.86 C-34.87 46.37 -35.95 50.01 -37 54 C-37.37 55.01 -37.74 56.02 -38.12 57.06 C-40.19 64 -40.19 71.22 -40.32 78.41 C-40.34 79.37 -40.36 80.34 -40.38 81.33 C-40.44 84.39 -40.5 87.44 -40.56 90.5 C-40.61 92.58 -40.65 94.67 -40.69 96.75 C-40.8 101.83 -40.9 106.92 -41 112 C-45.25 112.02 -49.51 112.04 -53.76 112.05 C-55.21 112.06 -56.66 112.07 -58.11 112.08 C-60.18 112.09 -62.26 112.09 -64.34 112.1 C-65.59 112.1 -66.84 112.11 -68.13 112.11 C-71 112 -71 112 -72 111 C-72.1 109.63 -72.13 108.25 -72.13 106.87 C-72.13 105.98 -72.13 105.09 -72.14 104.17 C-72.13 103.19 -72.13 102.2 -72.13 101.19 C-72.13 100.16 -72.13 99.13 -72.13 98.06 C-72.14 94.64 -72.14 91.21 -72.13 87.79 C-72.13 85.41 -72.13 83.04 -72.14 80.67 C-72.14 75.7 -72.14 70.72 -72.13 65.75 C-72.12 59.36 -72.13 52.97 -72.13 46.57 C-72.14 41.68 -72.14 36.78 -72.13 31.88 C-72.13 29.53 -72.13 27.17 -72.14 24.81 C-72.14 21.52 -72.13 18.23 -72.13 14.94 C-72.13 13.96 -72.13 12.98 -72.14 11.96 C-72.13 11.07 -72.13 10.18 -72.13 9.26 C-72.13 8.48 -72.13 7.7 -72.13 6.9 C-72 5 -72 5 -71 3 C-67.05 2.98 -63.1 2.96 -59.15 2.95 C-57.14 2.94 -55.13 2.92 -53.13 2.91 C-51.24 2.91 -51.24 2.91 -49.32 2.9 C-47.58 2.89 -47.58 2.89 -45.8 2.89 C-43 3 -43 3 -41 4 C-40.71 6.69 -40.53 9.3 -40.44 12 C-40.68 16.89 -40.68 16.89 -39 21 C-38.48 20.15 -37.97 19.31 -37.44 18.44 C-30.95 8.89 -21.97 3.07 -10.62 0.62 C-7.06 0.06 -3.61 -0.28 0 0 Z " fill="#004C6F" transform="translate(1141,231)"/>
<path d="M0 0 C1.72 0.01 1.72 0.01 3.48 0.01 C4.73 0.01 5.98 0.02 7.27 0.02 C9.23 0.04 9.23 0.04 11.23 0.06 C12.54 0.06 13.85 0.06 15.2 0.06 C24.95 0.1 24.95 0.1 27.23 1.24 C28.17 4.04 28.36 5.7 28.35 8.59 C28.36 9.48 28.36 10.37 28.36 11.28 C28.35 12.74 28.35 12.74 28.35 14.22 C28.35 15.25 28.35 16.27 28.35 17.33 C28.35 20.72 28.34 24.11 28.33 27.5 C28.33 29.85 28.33 32.2 28.33 34.55 C28.32 40.74 28.31 46.93 28.3 53.12 C28.29 59.44 28.29 65.75 28.28 72.07 C28.27 84.46 28.26 96.85 28.23 109.24 C23.7 109.27 19.16 109.29 14.62 109.3 C13.07 109.3 11.53 109.31 9.98 109.32 C7.77 109.33 5.55 109.34 3.33 109.34 C2.29 109.35 2.29 109.35 1.23 109.36 C-0.44 109.36 -2.1 109.3 -3.77 109.24 C-5.31 107.7 -4.89 106.26 -4.9 104.11 C-4.9 103.22 -4.91 102.33 -4.91 101.41 C-4.91 100.43 -4.91 99.44 -4.91 98.43 C-4.91 97.4 -4.92 96.37 -4.92 95.31 C-4.93 91.88 -4.93 88.45 -4.93 85.03 C-4.94 82.66 -4.94 80.29 -4.94 77.92 C-4.95 72.94 -4.95 67.97 -4.95 62.99 C-4.95 56.6 -4.96 50.21 -4.98 43.82 C-4.99 38.92 -4.99 34.02 -4.99 29.13 C-5 26.77 -5 24.41 -5.01 22.05 C-5.02 18.76 -5.01 15.47 -5.01 12.18 C-5.01 11.2 -5.02 10.22 -5.03 9.21 C-5.02 8.31 -5.02 7.42 -5.01 6.5 C-5.01 5.72 -5.01 4.94 -5.01 4.14 C-4.58 0.8 -3.19 0.28 0 0 Z " fill="#004D71" transform="translate(787.765625,233.757080078125)"/>
<path d="M0 0 C2.25 -0.14 4.5 -0.23 6.75 -0.31 C8 -0.37 9.26 -0.43 10.55 -0.49 C14 0 14 0 16.25 2.16 C18 5.01 19.68 7.86 21.25 10.81 C21.77 11.79 22.29 12.76 22.83 13.77 C23.21 14.51 23.6 15.24 24 16 C24.66 16 25.32 16 26 16 C26.12 16.78 26.25 17.57 26.38 18.38 C26.79 21.14 26.79 21.14 29 23 C30.72 26.14 32.36 29.31 33.99 32.5 C34.5 33.49 34.5 33.49 35.03 34.5 C35.33 35.1 35.64 35.7 35.96 36.31 C37.14 38.37 37.14 38.37 40 41 C40.33 27.47 40.66 13.94 41 0 C44.63 0 48.26 0 52 0 C52 20.13 52 40.26 52 61 C47.05 61 42.1 61 37 61 C33.6 57.41 32.07 55.27 30 51 C28.88 49.02 27.77 47.04 26.65 45.05 C25.55 43 24.46 40.94 23.38 38.88 C19.79 32.1 16.16 25.45 12 19 C9.85 21.15 10.74 26.07 10.68 29.07 C10.66 29.98 10.64 30.88 10.62 31.82 C10.56 34.73 10.5 37.65 10.44 40.56 C10.39 42.53 10.35 44.5 10.31 46.47 C10.2 51.32 10.1 56.16 10 61 C8.35 61.03 6.71 61.05 5.06 61.06 C4.15 61.07 3.23 61.09 2.29 61.1 C0 61 0 61 -1 60 C-1.1 58.2 -1.13 56.4 -1.13 54.59 C-1.13 52.86 -1.13 52.86 -1.14 51.09 C-1.14 49.84 -1.13 48.58 -1.13 47.29 C-1.13 46 -1.13 44.72 -1.14 43.4 C-1.14 40.69 -1.14 37.97 -1.13 35.25 C-1.12 31.77 -1.13 28.28 -1.13 24.8 C-1.14 21.48 -1.14 18.16 -1.13 14.85 C-1.13 13.59 -1.14 12.34 -1.14 11.04 C-1.14 9.89 -1.13 8.73 -1.13 7.54 C-1.13 6.51 -1.13 5.49 -1.13 4.44 C-1 2 -1 2 0 0 Z " fill="#004C6F" transform="translate(126,121)"/>
<path d="M0 0 C3.58 3.68 6.35 7.62 9 12 C9.4 12.66 9.81 13.32 10.22 14 C13.64 21.13 13.01 31.44 11.34 38.98 C8.2 47.73 2.35 54.06 -6 58 C-14.57 60.78 -25.95 60.02 -34 56 C-40.26 51.96 -44.25 47.36 -46.41 40.18 C-48.52 28.78 -47.87 16.93 -41.68 6.85 C-32.41 -5.14 -12.66 -7.92 0 0 Z M-30.38 12.5 C-30.91 13.32 -31.45 14.15 -32 15 C-32.35 15.53 -32.71 16.06 -33.07 16.61 C-35.65 23.27 -35.18 33.05 -33.16 39.82 C-30.41 44.69 -26.33 47.47 -21 49 C-16.32 49.76 -13.02 49.46 -8.69 47.5 C-3.24 42.43 -1.82 38 -1.53 30.82 C-1.42 22.08 -2.26 15.28 -8.19 8.5 C-16.46 4.09 -24.02 5.81 -30.38 12.5 Z " fill="#004B6E" transform="translate(534,124)"/>
<path d="M0 0 C3.27 3.51 5.89 6.91 6.15 11.79 C6.1 12.52 6.05 13.25 6 14 C4.4 14.05 2.79 14.09 1.19 14.12 C0.29 14.15 -0.6 14.17 -1.52 14.2 C-4 14 -4 14 -7 12 C-7 11.34 -7 10.68 -7 10 C-7.66 10 -8.32 10 -9 10 C-9.33 9.34 -9.66 8.68 -10 8 C-13.99 6.98 -16.39 6.79 -20.31 8.12 C-23.34 10.23 -24.1 11.48 -25 15 C-25 15.66 -25 16.32 -25 17 C-21.91 18.33 -18.79 19.39 -15.57 20.33 C-14.75 20.57 -13.94 20.82 -13.1 21.06 C-11.41 21.56 -9.73 22.05 -8.04 22.53 C-1.26 24.57 2.54 27.35 7.38 32.56 C10.08 38.28 10 45.01 8 51 C7.34 51 6.68 51 6 51 C5.79 51.58 5.59 52.16 5.38 52.75 C3.14 56.41 -0.15 58.51 -4.28 59.6 C-13.94 61.03 -24.66 61.11 -33.1 55.64 C-36.52 52.91 -39.07 50.42 -40 46 C-39.67 44.68 -39.34 43.36 -39 42 C-34.71 42 -30.42 42 -26 42 C-25.34 43.98 -24.68 45.96 -24 48 C-18.46 50.39 -12.81 50.96 -7.06 49 C-6.04 48.5 -6.04 48.5 -5 48 C-4.96 46.76 -4.92 45.53 -4.88 44.25 C-4.85 43.55 -4.83 42.86 -4.8 42.14 C-5.05 39.45 -5.31 38.14 -7 36 C-9.53 35.19 -11.85 34.62 -14.44 34.12 C-22.96 32.24 -30.51 29.65 -36.69 23.19 C-38.74 18.21 -38.88 13.95 -37.34 8.79 C-35.09 3.56 -32.22 1.1 -27 -1 C-18.8 -4.16 -7.75 -4.79 0 0 Z " fill="#004B6E" transform="translate(227,123)"/>
<path d="M0 0 C3.96 0 7.92 0 12 0 C12.33 14.85 12.66 29.7 13 45 C13.66 45 14.32 45 15 45 C15.25 45.62 15.5 46.24 15.75 46.88 C17.27 49.45 18.24 49.92 21 51 C23.45 51.28 23.45 51.28 26 51.19 C26.85 51.18 27.69 51.17 28.56 51.17 C30.84 51.01 32.8 50.58 35 50 C36.6 43.82 37.31 38.03 37.38 31.66 C37.4 30.81 37.41 29.96 37.43 29.09 C37.48 26.41 37.52 23.74 37.56 21.06 C37.61 18.36 37.65 15.66 37.71 12.96 C37.74 11.29 37.76 9.61 37.79 7.94 C37.89 2.22 37.89 2.22 39 0 C40.44 -0.05 41.87 -0.09 43.31 -0.12 C44.11 -0.15 44.91 -0.17 45.74 -0.2 C48 0 48 0 51 2 C50.67 2.33 50.34 2.66 50 3 C49.91 5.99 49.88 8.97 49.9 11.96 C49.9 13.31 49.9 13.31 49.91 14.69 C49.91 17.59 49.92 20.48 49.94 23.38 C49.94 25.32 49.95 27.27 49.95 29.21 C49.96 33.5 49.98 37.8 49.99 42.09 C50.02 48.76 47.28 53.59 42.69 58.44 C34.49 63.2 23.73 63.23 14.62 61.25 C5.33 58.04 5.33 58.04 2.82 54.19 C-0.09 47.96 -0.53 42.66 -0.39 35.84 C-0.38 34.81 -0.38 33.78 -0.37 32.72 C-0.35 29.46 -0.3 26.2 -0.25 22.94 C-0.23 20.71 -0.21 18.49 -0.2 16.27 C-0.15 10.84 -0.08 5.42 0 0 Z " fill="#004C6F" transform="translate(376,121)"/>
<path d="M0 0 C16.5 0 33 0 50 0 C50 3.3 50 6.6 50 10 C44.06 10.33 38.12 10.66 32 11 C31.67 27.5 31.34 44 31 61 C26.71 61 22.42 61 18 61 C17 60 17 60 16.88 58.06 C16.88 56.78 16.88 56.78 16.89 55.48 C16.89 54.52 16.89 53.56 16.89 52.57 C16.89 51.52 16.9 50.48 16.9 49.4 C16.9 48.34 16.91 47.27 16.91 46.18 C16.91 42.76 16.92 39.35 16.94 35.94 C16.94 33.63 16.95 31.32 16.95 29.01 C16.96 23.34 16.98 17.67 17 12 C11.39 12 5.78 12 0 12 C-1.17 8.5 -1.13 5.67 -1 2 C-0.67 1.34 -0.34 0.68 0 0 Z " fill="#004C6F" transform="translate(435,121)"/>
<path d="M0 0 C16.5 0 33 0 50 0 C50 3.3 50 6.6 50 10 C48.07 10.09 48.07 10.09 46.1 10.18 C44.42 10.27 42.74 10.35 41.06 10.44 C39.79 10.5 39.79 10.5 38.49 10.56 C37.68 10.6 36.87 10.64 36.04 10.68 C35.29 10.72 34.54 10.76 33.77 10.79 C31.98 10.82 31.98 10.82 31 12 C30.88 13.53 30.82 15.07 30.79 16.61 C30.77 17.59 30.75 18.57 30.73 19.58 C30.72 20.65 30.7 21.72 30.68 22.82 C30.66 23.9 30.64 24.99 30.62 26.11 C30.56 29.59 30.5 33.08 30.44 36.56 C30.39 38.92 30.35 41.27 30.31 43.63 C30.2 49.42 30.1 55.21 30 61 C28.02 61.03 26.04 61.05 24.06 61.06 C22.96 61.07 21.86 61.09 20.72 61.1 C18 61 18 61 17 60 C16.91 58.5 16.88 56.99 16.89 55.48 C16.89 54.52 16.89 53.56 16.89 52.57 C16.89 51.52 16.9 50.48 16.9 49.4 C16.9 48.34 16.91 47.27 16.91 46.18 C16.91 42.76 16.92 39.35 16.94 35.94 C16.94 33.63 16.95 31.32 16.95 29.01 C16.96 23.34 16.98 17.67 17 12 C11.39 12 5.78 12 0 12 C-1.17 8.5 -1.13 5.67 -1 2 C-0.67 1.34 -0.34 0.68 0 0 Z " fill="#004C6F" transform="translate(240,121)"/>
<path d="M0 0 C15.84 0 31.68 0 48 0 C50 3.99 50.2 5.7 50 10 C48.07 10.09 48.07 10.09 46.1 10.18 C44.42 10.27 42.74 10.35 41.06 10.44 C39.79 10.5 39.79 10.5 38.49 10.56 C37.68 10.6 36.87 10.64 36.04 10.68 C35.29 10.72 34.54 10.76 33.77 10.79 C31.98 10.82 31.98 10.82 31 12 C30.88 13.53 30.82 15.07 30.79 16.61 C30.77 17.59 30.75 18.57 30.73 19.58 C30.72 20.65 30.7 21.72 30.68 22.82 C30.66 23.9 30.64 24.99 30.62 26.11 C30.56 29.59 30.5 33.08 30.44 36.56 C30.39 38.92 30.35 41.27 30.31 43.63 C30.2 49.42 30.1 55.21 30 61 C28.19 61.03 26.38 61.05 24.56 61.06 C23.55 61.07 22.54 61.09 21.5 61.1 C19 61 19 61 18 60 C17.91 58.5 17.88 56.99 17.89 55.48 C17.89 54.52 17.89 53.56 17.89 52.57 C17.89 51.52 17.9 50.48 17.9 49.4 C17.9 48.34 17.91 47.27 17.91 46.18 C17.91 42.76 17.92 39.35 17.94 35.94 C17.94 33.63 17.95 31.32 17.95 29.01 C17.96 23.34 17.98 17.67 18 12 C12.06 12 6.12 12 0 12 C-1.17 8.5 -1.13 5.67 -1 2 C-0.67 1.34 -0.34 0.68 0 0 Z " fill="#004C6F" transform="translate(318,121)"/>
<path d="M0 0 C0.33 0 0.66 0 1 0 C1 28.05 1 56.1 1 85 C-344.18 85 -689.36 85 -1045 85 C-1045 84.67 -1045 84.34 -1045 84 C-700.15 84 -355.3 84 0 84 C0 56.28 0 28.56 0 0 Z " fill="#000102" transform="translate(1144,372)"/>
<path d="M0 0 C1.13 -0.02 2.27 -0.05 3.43 -0.07 C14.06 -0.11 14.06 -0.11 18.75 4.38 C20.96 7.49 21.16 10.48 21.31 14.25 C21.38 15.26 21.44 16.27 21.5 17.3 C20.55 21.2 19.1 22.77 15.98 25.2 C11.79 27.41 7.46 27.26 2.81 27.25 C1.84 27.27 0.87 27.29 -0.13 27.31 C-2.5 27.36 -4.88 27.37 -7.25 27.38 C-7.25 33.31 -7.25 39.25 -7.25 45.38 C-9.23 45.38 -11.21 45.38 -13.25 45.38 C-15.41 43.21 -14.41 38.17 -14.42 35.16 C-14.42 34.23 -14.42 33.31 -14.43 32.35 C-14.43 30.39 -14.44 28.43 -14.44 26.47 C-14.44 23.45 -14.46 20.44 -14.47 17.43 C-14.48 15.53 -14.48 13.63 -14.48 11.72 C-14.49 10.82 -14.49 9.91 -14.5 8.98 C-14.5 8.14 -14.5 7.3 -14.49 6.44 C-14.49 5.7 -14.5 4.96 -14.5 4.2 C-13.66 -2.02 -4.6 0.01 0 0 Z " fill="#E4751B" transform="translate(374.25,391.625)"/>
<path d="M0 0 C1.2 0.01 2.41 0.02 3.65 0.03 C5.6 0.04 5.6 0.04 7.6 0.05 C8.98 0.07 10.36 0.08 11.74 0.1 C13.12 0.11 14.51 0.12 15.9 0.13 C19.3 0.15 22.71 0.19 26.11 0.23 C27.75 3.82 28.35 6.59 28.31 10.53 C28.3 11.5 28.29 12.48 28.29 13.49 C28.27 14.49 28.25 15.5 28.24 16.54 C28.23 17.57 28.22 18.59 28.21 19.65 C28.19 22.18 28.15 24.7 28.11 27.23 C23.57 27.25 19.03 27.27 14.49 27.28 C12.95 27.29 11.4 27.29 9.86 27.3 C7.64 27.31 5.43 27.32 3.21 27.32 C2.17 27.33 2.17 27.33 1.1 27.34 C-0.56 27.34 -2.23 27.29 -3.89 27.23 C-6.42 24.69 -5.07 17.7 -5.08 14.29 C-5.09 13.17 -5.1 12.04 -5.11 10.89 C-5.12 9.81 -5.12 8.74 -5.12 7.64 C-5.12 6.65 -5.13 5.66 -5.13 4.64 C-4.76 0.92 -3.65 0.29 0 0 Z " fill="#004D71" transform="translate(787.88916015625,183.77294921875)"/>
<path d="M0 0 C3.63 0 7.26 0 11 0 C12.76 4.41 13.25 6.22 13.23 10.71 C13.23 12.39 13.23 12.39 13.23 14.1 C13.22 15.3 13.21 16.5 13.2 17.74 C13.19 18.97 13.19 20.21 13.19 21.48 C13.18 24.76 13.16 28.03 13.14 31.3 C13.12 34.65 13.11 37.99 13.1 41.34 C13.08 47.89 13.04 54.45 13 61 C10.85 61.03 8.71 61.05 6.56 61.06 C5.37 61.07 4.17 61.09 2.94 61.1 C0 61 0 61 -1 60 C-1.1 58.2 -1.13 56.4 -1.13 54.59 C-1.13 52.86 -1.13 52.86 -1.14 51.09 C-1.14 49.84 -1.13 48.58 -1.13 47.29 C-1.13 46 -1.13 44.72 -1.14 43.4 C-1.14 40.69 -1.14 37.97 -1.13 35.25 C-1.12 31.77 -1.13 28.28 -1.13 24.8 C-1.14 21.48 -1.14 18.16 -1.13 14.85 C-1.13 13.59 -1.14 12.34 -1.14 11.04 C-1.14 9.89 -1.13 8.73 -1.13 7.54 C-1.13 6.51 -1.13 5.49 -1.13 4.44 C-1 2 -1 2 0 0 Z " fill="#004E71" transform="translate(99,121)"/>
<path d="M0 0 C1.7 -0.04 1.7 -0.04 3.43 -0.08 C8.25 0.41 10.74 2.2 13.94 5.75 C16.83 9.89 16.85 13.18 16.88 18.12 C16.89 19.34 16.9 20.55 16.92 21.8 C16.57 26.96 15.63 29.24 12.08 33.04 C8.35 35.94 4.95 35.87 0.38 35.62 C-0.35 35.61 -1.08 35.6 -1.83 35.58 C-7.13 35.43 -7.13 35.43 -8.31 34.25 C-8.4 31.8 -8.43 29.38 -8.41 26.93 C-8.41 26.2 -8.41 25.47 -8.41 24.72 C-8.4 22.37 -8.39 20.03 -8.38 17.69 C-8.37 16.1 -8.37 14.52 -8.36 12.93 C-8.35 9.04 -8.33 5.14 -8.31 1.25 C-5.51 -0.15 -3.12 0.04 0 0 Z " fill="#004C6F" transform="translate(169.3125,396.75)"/>
<path d="M0 0 C1.58 0 1.58 0 3.19 0.01 C4.75 -0.01 4.75 -0.01 6.34 -0.04 C11.91 -0.04 16.22 0.02 20.94 3.32 C22.8 5.26 22.8 5.26 24.25 7.32 C24.99 8.34 24.99 8.34 25.74 9.38 C28.55 13.92 28.16 18.48 28.19 23.63 C28.21 24.48 28.23 25.32 28.25 26.19 C28.3 32.89 26.99 37.02 22.44 42.13 C18.67 45.43 15.83 45.45 11 45.46 C9.84 45.46 8.68 45.46 7.48 45.46 C5.67 45.45 5.67 45.45 3.82 45.45 C1.99 45.45 1.99 45.45 0.12 45.46 C-1.03 45.46 -2.19 45.46 -3.38 45.46 C-4.44 45.45 -5.51 45.45 -6.61 45.45 C-9.06 45.32 -9.06 45.32 -10.06 44.32 C-10.17 41.24 -10.22 38.19 -10.23 35.11 C-10.23 34.18 -10.23 33.26 -10.24 32.3 C-10.24 30.34 -10.24 28.38 -10.24 26.41 C-10.25 23.4 -10.26 20.39 -10.28 17.38 C-10.29 15.48 -10.29 13.57 -10.29 11.67 C-10.3 10.76 -10.3 9.86 -10.31 8.93 C-10.31 8.09 -10.3 7.25 -10.3 6.39 C-10.3 5.65 -10.3 4.91 -10.31 4.15 C-9.58 -1.22 -4.13 0.03 0 0 Z M-3.06 6.32 C-3.08 11 -3.1 15.69 -3.11 20.37 C-3.12 21.96 -3.13 23.55 -3.13 25.15 C-3.15 27.43 -3.15 29.72 -3.16 32.01 C-3.16 32.72 -3.17 33.44 -3.17 34.18 C-3.17 35.89 -3.12 37.61 -3.06 39.32 C-0.79 41.59 4.64 40.75 7.78 40.78 C13 40.68 16.14 39.89 19.88 36.03 C23.38 30.42 22.47 22.63 21.94 16.32 C20.62 12.36 18.25 8.91 14.94 6.32 C11.56 5.2 8.93 5.19 5.38 5.2 C3.64 5.19 3.64 5.19 1.88 5.19 C-0.99 5.12 -0.99 5.12 -3.06 6.32 Z " fill="#E4751B" transform="translate(164.05859375,391.677734375)"/>
<path d="M0 0 C2.66 0.33 2.66 0.33 4.44 2.03 C5 2.87 5.57 3.71 6.16 4.58 C6.83 5.56 7.5 6.54 8.2 7.55 C9.02 8.81 9.84 10.07 10.66 11.33 C11.18 12.14 11.71 12.96 12.26 13.8 C13.12 15.12 13.12 15.12 13.99 16.48 C14.58 17.38 15.16 18.28 15.76 19.21 C16.93 21.03 18.1 22.85 19.26 24.68 C19.8 25.53 20.34 26.37 20.9 27.24 C21.62 28.39 21.62 28.39 22.36 29.55 C23.55 31.47 23.55 31.47 25.66 32.33 C25.68 31.43 25.7 30.53 25.72 29.61 C25.79 26.28 25.88 22.95 25.97 19.62 C26.01 18.18 26.05 16.74 26.08 15.3 C26.12 13.23 26.18 11.16 26.24 9.09 C26.27 7.84 26.31 6.59 26.34 5.31 C26.66 2.33 26.66 2.33 28.66 0.33 C29.98 0.66 31.3 0.99 32.66 1.33 C32.66 15.85 32.66 30.37 32.66 45.33 C26.66 45.33 26.66 45.33 24.08 43.23 C21.55 40.2 19.17 37.12 16.91 33.89 C16.48 33.29 16.06 32.69 15.62 32.08 C11.09 25.62 6.87 18.99 2.66 12.33 C2.33 23.22 2 34.11 1.66 45.33 C0.01 45 -1.64 44.67 -3.34 44.33 C-3.37 38.22 -3.39 32.12 -3.4 26.01 C-3.4 23.93 -3.41 21.85 -3.42 19.78 C-3.43 16.79 -3.44 13.81 -3.44 10.83 C-3.45 9.43 -3.45 9.43 -3.46 8 C-3.46 7.14 -3.46 6.28 -3.46 5.39 C-3.46 4.63 -3.46 3.87 -3.46 3.08 C-3.28 0.34 -2.71 0.38 0 0 Z " fill="#E3741B" transform="translate(721.34375,391.671875)"/>
<path d="M0 0 C1.45 0.03 1.45 0.03 2.94 0.06 C7.95 11.44 12.93 22.83 17.56 34.38 C17.9 35.22 18.25 36.07 18.6 36.94 C19.06 38.11 19.06 38.11 19.54 39.3 C19.81 39.98 20.08 40.66 20.36 41.36 C20.94 43.06 20.94 43.06 20.94 45.06 C18.12 45.38 18.12 45.38 14.94 45.06 C13.31 43.06 13.31 43.06 11.94 40.06 C10.62 37.42 9.3 34.78 7.94 32.06 C2 32.06 -3.94 32.06 -10.06 32.06 C-10.35 33.47 -10.64 34.87 -10.94 36.31 C-11.6 39.53 -12.49 42.18 -14.06 45.06 C-16.04 45.06 -18.02 45.06 -20.06 45.06 C-19.43 39.72 -17.71 35.15 -15.72 30.2 C-15.23 28.95 -15.23 28.95 -14.72 27.68 C-14.03 25.93 -13.33 24.18 -12.63 22.43 C-11.56 19.74 -10.5 17.05 -9.43 14.37 C-8.76 12.66 -8.08 10.96 -7.41 9.26 C-7.09 8.45 -6.77 7.65 -6.44 6.82 C-3.74 0.08 -3.74 0.08 0 0 Z " fill="#E4751B" transform="translate(813.0625,391.9375)"/>
<path d="M0 0 C4.36 8.17 7.86 16.66 11.36 25.23 C12.32 27.59 13.3 29.95 14.27 32.31 C14.88 33.81 15.5 35.32 16.11 36.82 C16.4 37.52 16.69 38.23 16.99 38.96 C19 43.88 19 43.88 19 45 C16.69 45 14.38 45 12 45 C11.37 43.79 10.75 42.59 10.12 41.38 C9.78 40.7 9.43 40.03 9.07 39.34 C7.82 36.62 6.91 33.85 6 31 C3.37 31.14 0.75 31.29 -1.88 31.44 C-2.62 31.48 -3.37 31.52 -4.14 31.56 C-8.2 31.72 -8.2 31.72 -12 33 C-12.94 34.99 -13.81 37.02 -14.62 39.06 C-15.07 40.17 -15.52 41.27 -15.98 42.41 C-16.31 43.26 -16.65 44.12 -17 45 C-18.65 45 -20.3 45 -22 45 C-23 43 -23 43 -21.86 39.46 C-21.28 37.93 -20.7 36.41 -20.11 34.89 C-19.8 34.08 -19.49 33.27 -19.17 32.44 C-18.19 29.85 -17.19 27.27 -16.19 24.69 C-15.52 22.96 -14.86 21.23 -14.2 19.49 C-12.72 15.61 -11.23 11.74 -9.72 7.87 C-9.1 6.26 -8.51 4.65 -7.92 3.03 C-6.24 -0.68 -3.68 -0.1 0 0 Z " fill="#E4751B" transform="translate(661,392)"/>
<path d="M0 0 C3.63 0 7.26 0 11 0 C11 20.13 11 40.26 11 61 C7.37 61 3.74 61 0 61 C-1.74 59.26 -1.13 56.86 -1.13 54.49 C-1.13 53.31 -1.14 52.13 -1.14 50.92 C-1.14 49.63 -1.13 48.35 -1.13 47.03 C-1.13 45.73 -1.13 44.42 -1.14 43.07 C-1.14 40.31 -1.14 37.54 -1.13 34.77 C-1.12 31.22 -1.13 27.66 -1.13 24.11 C-1.14 20.73 -1.14 17.35 -1.13 13.97 C-1.13 12.69 -1.14 11.4 -1.14 10.08 C-1.14 8.91 -1.13 7.73 -1.13 6.51 C-1.13 5.47 -1.13 4.43 -1.13 3.35 C-1 1 -1 1 0 0 Z " fill="#004E71" transform="translate(298,121)"/>
<path d="M0 0 C3.06 2.3 4.71 4.5 6.5 7.88 C6.5 9.19 6.5 10.51 6.5 11.88 C4.31 12.25 4.31 12.25 1.5 11.88 C0.33 10.35 -0.83 8.82 -1.99 7.29 C-4.46 4.97 -6.99 4.86 -10.28 4.71 C-13.66 4.96 -15.8 5.85 -18.5 7.88 C-19.47 10.46 -19.47 10.46 -19.5 12.88 C-15.25 16.87 -9.66 17.51 -4.14 18.72 C1.64 20.15 4.34 21.73 7.5 26.88 C8.39 30.96 8.23 34.76 7.5 38.88 C4.97 42.36 3.54 43.53 -0.5 44.88 C-17.97 46.33 -17.97 46.33 -24.96 40.68 C-27.38 37.85 -27.99 35.54 -28.5 31.88 C-27.84 31.22 -27.18 30.56 -26.5 29.88 C-24.56 29.94 -24.56 29.94 -22.5 30.88 C-22.05 31.66 -21.59 32.44 -21.12 33.25 C-18.97 36.74 -17.37 37.54 -13.5 38.88 C-8.33 39.4 -4.08 39.52 0.5 36.88 C0.61 31.79 0.61 31.79 -0.5 26.88 C-3.06 26.09 -5.51 25.47 -8.12 24.94 C-14.82 23.56 -20.17 21.68 -25.5 17.19 C-27.15 13.36 -26.65 9.82 -25.5 5.88 C-19.28 -2.24 -9.31 -2.99 0 0 Z " fill="#E4751B" transform="translate(462.5,392.125)"/>
<path d="M0 0 C3.4 2.64 4.68 5.03 6.5 8.94 C6.5 9.93 6.5 10.92 6.5 11.94 C4.31 12.31 4.31 12.31 1.5 11.94 C0.36 10.41 -0.78 8.88 -1.92 7.35 C-5.12 4.49 -9.4 4.76 -13.5 4.94 C-16.48 5.36 -16.48 5.36 -18.5 6.94 C-19.86 9.46 -19.86 9.46 -20.5 11.94 C-16.56 15.57 -13.26 16.77 -8.06 17.94 C-2.17 19.27 3.24 20.68 6.85 25.88 C8.12 29.88 8.17 33.81 7.5 37.94 C5.07 41.1 2.8 42.74 -0.5 44.94 C-3.3 45.19 -5.95 45.31 -8.75 45.31 C-9.49 45.34 -10.23 45.36 -10.99 45.39 C-16.63 45.42 -19.87 44.17 -24.5 40.94 C-27.53 37.2 -28.5 35.8 -28.5 30.94 C-26.85 30.61 -25.2 30.28 -23.5 29.94 C-22.66 31.33 -22.66 31.33 -21.81 32.75 C-19.38 36.1 -18.33 37.47 -14.5 38.94 C-7.59 39.72 -7.59 39.72 -1.18 37.6 C0.82 35.98 0.82 35.98 0.81 32.94 C0.6 29.89 0.6 29.89 -0.5 26.94 C-3.21 26.18 -5.81 25.59 -8.56 25.06 C-21.39 22.31 -21.39 22.31 -25.5 17.94 C-27.66 13.61 -27.78 11.81 -26.31 7.19 C-24.15 3.31 -23.02 1.68 -19.06 -0.25 C-12.69 -1.7 -6.29 -1.91 0 0 Z " fill="#E4751B" transform="translate(1018.5,392.0625)"/>
<path d="M0 0 C1.29 0.01 2.59 0.01 3.92 0.02 C4.95 0.02 4.95 0.02 6 0.02 C8.2 0.03 10.4 0.04 12.6 0.05 C14.09 0.06 15.58 0.06 17.07 0.06 C20.73 0.08 24.38 0.09 28.04 0.11 C28.54 2.59 28.54 2.59 29.04 5.11 C15.68 5.61 15.68 5.61 2.04 6.11 C2.37 10.07 2.7 14.03 3.04 18.11 C10.63 18.44 18.22 18.77 26.04 19.11 C26.37 20.76 26.7 22.41 27.04 24.11 C14.67 24.61 14.67 24.61 2.04 25.11 C2.37 29.73 2.7 34.35 3.04 39.11 C4.91 39.17 6.77 39.23 8.69 39.3 C11.12 39.38 13.55 39.47 15.98 39.55 C17.21 39.59 18.44 39.63 19.71 39.67 C21.47 39.73 21.47 39.73 23.26 39.8 C24.88 39.85 24.88 39.85 26.54 39.91 C29.04 40.11 29.04 40.11 30.04 41.11 C30.08 42.78 30.08 44.45 30.04 46.11 C26.89 46.14 23.75 46.16 20.6 46.18 C19.26 46.19 19.26 46.19 17.88 46.2 C16.6 46.21 16.6 46.21 15.29 46.21 C14.5 46.22 13.71 46.22 12.9 46.23 C11.04 46.11 11.04 46.11 10.04 45.11 C7.87 45.07 5.71 45.08 3.54 45.11 C1.37 45.15 -0.79 45.16 -2.96 45.11 C-4.49 43.58 -4.09 42.2 -4.09 40.07 C-4.09 39.21 -4.09 38.35 -4.1 37.47 C-4.1 36.54 -4.09 35.61 -4.09 34.64 C-4.09 33.69 -4.09 32.74 -4.09 31.76 C-4.1 29.75 -4.09 27.74 -4.09 25.72 C-4.08 22.63 -4.09 19.53 -4.1 16.44 C-4.1 14.49 -4.09 12.53 -4.09 10.58 C-4.09 9.65 -4.1 8.72 -4.1 7.76 C-4.1 6.9 -4.09 6.04 -4.09 5.16 C-4.09 4.4 -4.09 3.64 -4.09 2.86 C-3.86 -0.2 -3.1 0.12 0 0 Z " fill="#E0731D" transform="translate(237.959228515625,391.886474609375)"/>
<path d="M0 0 C0.99 0 0.99 0 2.01 0 C4.13 0.01 6.25 0.02 8.37 0.04 C9.8 0.04 11.24 0.04 12.68 0.05 C16.2 0.06 19.72 0.08 23.24 0.1 C23.74 2.57 23.74 2.57 24.24 5.1 C23.49 5.12 22.74 5.15 21.96 5.17 C18.58 5.29 15.19 5.41 11.8 5.54 C10.62 5.57 9.44 5.61 8.22 5.65 C6.53 5.72 6.53 5.72 4.81 5.78 C3.77 5.82 2.72 5.85 1.65 5.89 C-0.71 5.83 -0.71 5.83 -1.76 7.1 C-1.76 10.73 -1.76 14.36 -1.76 18.1 C5.83 18.43 13.42 18.76 21.24 19.1 C21.57 20.75 21.9 22.4 22.24 24.1 C21.55 24.12 20.86 24.15 20.15 24.17 C17.03 24.29 13.92 24.41 10.8 24.54 C9.72 24.57 8.63 24.61 7.51 24.65 C6.47 24.7 5.44 24.74 4.37 24.78 C2.93 24.84 2.93 24.84 1.47 24.89 C-0.73 24.86 -0.73 24.86 -1.76 26.1 C-1.76 30.39 -1.76 34.68 -1.76 39.1 C11.11 39.59 11.11 39.59 24.24 40.1 C25.24 44.1 25.24 44.1 25.24 46.1 C22.1 46.13 18.95 46.14 15.8 46.16 C14.46 46.17 14.46 46.17 13.08 46.19 C11.8 46.19 11.8 46.19 10.5 46.2 C9.71 46.2 8.91 46.21 8.1 46.21 C6.24 46.1 6.24 46.1 5.24 45.1 C3.08 45.05 0.91 45.06 -1.26 45.1 C-3.42 45.14 -5.59 45.14 -7.76 45.1 C-8.76 44.1 -8.76 44.1 -8.88 42.34 C-8.88 41.58 -8.87 40.82 -8.87 40.04 C-8.87 39.18 -8.87 38.32 -8.87 37.43 C-8.87 36.49 -8.86 35.56 -8.86 34.59 C-8.85 33.64 -8.85 32.69 -8.85 31.71 C-8.85 28.65 -8.83 25.59 -8.82 22.54 C-8.82 20.47 -8.81 18.4 -8.81 16.33 C-8.8 11.26 -8.78 6.18 -8.76 1.1 C-5.84 -0.36 -3.26 -0.01 0 0 Z " fill="#DF721D" transform="translate(1076.7578125,391.90234375)"/>
<path d="M0 0 C4.79 3.38 7.12 7.57 9.56 12.81 C6.31 13.12 6.31 13.12 2.56 12.81 C0.12 10.44 0.12 10.44 -1.44 7.81 C-1.44 7.15 -1.44 6.49 -1.44 5.81 C-6.31 4.25 -10.81 4.24 -15.62 5.94 C-20.69 9.32 -22.52 13.27 -23.88 19.06 C-24.74 24.85 -24.21 29.61 -21.44 34.81 C-18.72 38.23 -15.97 39.53 -11.71 40.32 C-6.42 40.67 -6.42 40.67 -1.69 38.6 C0.54 36 2.23 32.96 3.56 29.81 C4.88 29.81 6.2 29.81 7.56 29.81 C7.56 30.47 7.56 31.13 7.56 31.81 C8.22 31.81 8.88 31.81 9.56 31.81 C8.4 38.25 5.87 41.08 0.56 44.81 C-4.39 47.29 -12.01 46.54 -17.44 45.81 C-22.16 44.16 -25.2 41.82 -27.83 37.55 C-31.7 29.3 -32.68 21.82 -29.69 13.12 C-27.32 7.19 -25.15 3.48 -19.38 0.5 C-12.95 -2.11 -6.54 -2.26 0 0 Z " fill="#E4751B" transform="translate(592.4375,392.1875)"/>
<path d="M0 0 C1.32 0.33 2.64 0.66 4 1 C4.33 13.54 4.66 26.08 5 39 C11.93 39.33 18.86 39.66 26 40 C27 44 27 44 27 46 C24.35 46.03 21.71 46.05 19.06 46.06 C18.31 46.07 17.55 46.08 16.78 46.09 C14.85 46.1 12.92 46.05 11 46 C10.67 45.67 10.34 45.34 10 45 C8.17 44.95 6.33 44.96 4.5 45 C2.67 45.04 0.83 45.05 -1 45 C-3.16 42.84 -2.16 37.79 -2.17 34.79 C-2.17 33.86 -2.17 32.93 -2.18 31.98 C-2.18 30.02 -2.19 28.05 -2.19 26.09 C-2.19 23.08 -2.21 20.07 -2.22 17.06 C-2.23 15.15 -2.23 13.25 -2.23 11.35 C-2.24 10.44 -2.24 9.54 -2.25 8.6 C-2.25 7.77 -2.25 6.93 -2.24 6.07 C-2.24 5.33 -2.25 4.59 -2.25 3.83 C-2 2 -2 2 0 0 Z " fill="#E1731C" transform="translate(874,392)"/>
<path d="M0 0 C1.32 -0.05 2.63 -0.1 3.99 -0.15 C8.54 0.5 9.93 1.76 12.69 5.38 C13.31 8.94 13.31 8.94 12.69 12.38 C9.73 15.58 8.11 16.33 3.73 16.8 C2.3 16.78 0.87 16.75 -0.56 16.69 C-1.66 16.67 -1.66 16.67 -2.78 16.66 C-8.14 16.54 -8.14 16.54 -9.31 15.38 C-9.39 13.02 -9.4 10.67 -9.38 8.31 C-9.37 7.02 -9.36 5.73 -9.35 4.4 C-9.34 3.4 -9.32 2.4 -9.31 1.38 C-6.33 -0.12 -3.28 0.07 0 0 Z " fill="#004C6F" transform="translate(376.3125,396.625)"/>
<path d="M0 0 C0 14.52 0 29.04 0 44 C-1.65 44 -3.3 44 -5 44 C-6 43 -6 43 -6.12 41.25 C-6.12 40.49 -6.12 39.72 -6.11 38.94 C-6.11 38.08 -6.11 37.22 -6.11 36.33 C-6.11 35.4 -6.1 34.46 -6.1 33.5 C-6.1 32.54 -6.09 31.59 -6.09 30.61 C-6.09 27.55 -6.08 24.49 -6.06 21.44 C-6.06 19.37 -6.05 17.3 -6.05 15.24 C-6.04 10.16 -6.02 5.08 -6 0 C-4 -1 -4 -1 0 0 Z " fill="#E4751B" transform="translate(948,393)"/>
<path d="M0 0 C0 14.52 0 29.04 0 44 C-1.65 44 -3.3 44 -5 44 C-6 43 -6 43 -6.12 41.25 C-6.12 40.49 -6.12 39.72 -6.11 38.94 C-6.11 38.08 -6.11 37.22 -6.11 36.33 C-6.11 35.4 -6.1 34.46 -6.1 33.5 C-6.1 32.54 -6.09 31.59 -6.09 30.61 C-6.09 27.55 -6.08 24.49 -6.06 21.44 C-6.06 19.37 -6.05 17.3 -6.05 15.24 C-6.04 10.16 -6.02 5.08 -6 0 C-4 -1 -4 -1 0 0 Z " fill="#E4751B" transform="translate(519,393)"/>
<path d="M0 0 C1.8 3.43 3.22 6.96 4.62 10.56 C5.07 11.7 5.52 12.83 5.98 14 C7 17 7 17 7 20 C0.57 20.5 0.57 20.5 -6 21 C-5.44 14.94 -4.36 4.36 0 0 Z " fill="#004C6F" transform="translate(658,398)"/>
<path d="M0 0 C0.33 0 0.66 0 1 0 C5.22 13.63 5.22 13.63 7 20 C2.71 20 -1.58 20 -6 20 C-7 18 -7 18 -6.47 16.12 C-6.17 15.38 -5.87 14.63 -5.57 13.87 C-5.25 13.06 -4.93 12.26 -4.6 11.43 C-4.26 10.58 -3.92 9.74 -3.56 8.88 C-3.22 8.03 -2.89 7.18 -2.54 6.3 C-1.7 4.2 -0.85 2.1 0 0 Z " fill="#004C6F" transform="translate(813,398)"/>
<path d="M0 0 C35.31 0 70.62 0 107 0 C107 0.33 107 0.66 107 1 C71.69 1 36.38 1 0 1 C0 0.67 0 0.34 0 0 Z " fill="#000102" transform="translate(262,343)"/>
<path d="M0 0 C28.05 0 56.1 0 85 0 C85 0.33 85 0.66 85 1 C56.95 1 28.9 1 0 1 C0 0.67 0 0.34 0 0 Z " fill="#000102" transform="translate(974,296)"/>
<path d="M0 0 C25.74 0 51.48 0 78 0 C78 0.33 78 0.66 78 1 C52.26 1 26.52 1 0 1 C0 0.67 0 0.34 0 0 Z " fill="#000102" transform="translate(290,233)"/>
<path d="M0 0 C0.33 0 0.66 0 1 0 C1 14.19 1 28.38 1 43 C-2.96 43 -6.92 43 -11 43 C-11 42.67 -11 42.34 -11 42 C-7.37 42 -3.74 42 0 42 C0 28.14 0 14.28 0 0 Z " fill="#000102" transform="translate(137,141)"/>
<path d="M0 0 C2.34 0.29 4.67 0.62 7 1 C5.02 3.31 3.04 5.62 1 8 C-0.65 7.67 -2.3 7.34 -4 7 C-1.12 1.12 -1.12 1.12 0 0 Z " fill="#E4751B" transform="translate(814,380)"/>
<path d="M0 0 C0.33 0 0.66 0 1 0 C1 13.53 1 27.06 1 41 C0.67 41 0.34 41 0 41 C0 27.47 0 13.94 0 0 Z " fill="#000102" transform="translate(426,124)"/>
<path d="M0 0 C0 0.66 0 1.32 0 2 C-6.27 2 -12.54 2 -19 2 C-19 1.34 -19 0.68 -19 0 C-16.21 -0.19 -13.42 -0.38 -10.62 -0.56 C-9.83 -0.62 -9.04 -0.67 -8.22 -0.73 C-2.23 -1.11 -2.23 -1.11 0 0 Z " fill="#BF662F" transform="translate(268,436)"/>
<path d="M0 0 C10.23 0 20.46 0 31 0 C31 0.33 31 0.66 31 1 C20.77 1 10.54 1 0 1 C0 0.67 0 0.34 0 0 Z " fill="#000102" transform="translate(156,343)"/>
<path d="M0 0 C1.5 1 1.5 1 3 3 C3.27 5.72 3.13 8.26 3 11 C2.01 11 1.02 11 0 11 C-0.19 9.54 -0.38 8.08 -0.56 6.62 C-0.67 5.81 -0.77 5 -0.88 4.16 C-1 2 -1 2 0 0 Z " fill="#C56623" transform="translate(555,121)"/>
<path d="M0 0 C0.66 0 1.32 0 2 0 C2 9.57 2 19.14 2 29 C1.67 29 1.34 29 1 29 C0.67 19.43 0.34 9.86 0 0 Z " fill="#000102" transform="translate(1142,231)"/>
<path d="M0 0 C8.58 0 17.16 0 26 0 C26 0.33 26 0.66 26 1 C17.42 1 8.84 1 0 1 C0 0.67 0 0.34 0 0 Z " fill="#000102" transform="translate(520,343)"/>
<path d="M0 0 C7.92 0 15.84 0 24 0 C24 0.33 24 0.66 24 1 C16.08 1 8.16 1 0 1 C0 0.67 0 0.34 0 0 Z " fill="#000102" transform="translate(457,343)"/>
<path d="M0 0 C7.92 0 15.84 0 24 0 C24 0.33 24 0.66 24 1 C16.08 1 8.16 1 0 1 C0 0.67 0 0.34 0 0 Z " fill="#000102" transform="translate(397,343)"/>
<path d="M0 0 C6.93 0 13.86 0 21 0 C21 0.33 21 0.66 21 1 C14.07 1 7.14 1 0 1 C0 0.67 0 0.34 0 0 Z " fill="#000102" transform="translate(991,346)"/>
<path d="M0 0 C5.94 0 11.88 0 18 0 C18 0.33 18 0.66 18 1 C12.06 1 6.12 1 0 1 C0 0.67 0 0.34 0 0 Z " fill="#000102" transform="translate(467,132)"/>
<path d="M0 0 C5.94 0 11.88 0 18 0 C18 0.33 18 0.66 18 1 C12.06 1 6.12 1 0 1 C0 0.67 0 0.34 0 0 Z " fill="#000102" transform="translate(350,132)"/>
<path d="M0 0 C5.94 0 11.88 0 18 0 C18 0.33 18 0.66 18 1 C12.06 1 6.12 1 0 1 C0 0.67 0 0.34 0 0 Z " fill="#000102" transform="translate(272,132)"/>
<path d="M0 0 C0.33 0 0.66 0 1 0 C1 1.98 1 3.96 1 6 C-2.96 6 -6.92 6 -11 6 C-11 5.67 -11 5.34 -11 5 C-7.37 5 -3.74 5 0 5 C0 3.35 0 1.7 0 0 Z " fill="#000102" transform="translate(234,133)"/>
<path d="M0 0 C4.95 0 9.9 0 15 0 C15 0.33 15 0.66 15 1 C10.05 1 5.1 1 0 1 C0 0.67 0 0.34 0 0 Z " fill="#000102" transform="translate(163,183)"/>
<path d="M0 0 C4.29 0 8.58 0 13 0 C13 0.33 13 0.66 13 1 C8.71 1 4.42 1 0 1 C0 0.67 0 0.34 0 0 Z " fill="#000102" transform="translate(453,183)"/>
<path d="M0 0 C4.29 0 8.58 0 13 0 C13 0.33 13 0.66 13 1 C8.71 1 4.42 1 0 1 C0 0.67 0 0.34 0 0 Z " fill="#000102" transform="translate(258,183)"/>
<path d="M0 0 C4.29 0 8.58 0 13 0 C13 0.33 13 0.66 13 1 C8.71 1 4.42 1 0 1 C0 0.67 0 0.34 0 0 Z " fill="#000102" transform="translate(99,183)"/>
<path d="M0 0 C3.96 0 7.92 0 12 0 C12 0.33 12 0.66 12 1 C8.04 1 4.08 1 0 1 C0 0.67 0 0.34 0 0 Z " fill="#000102" transform="translate(511,184)"/>
<path d="M0 0 C3.96 0 7.92 0 12 0 C12 0.33 12 0.66 12 1 C8.04 1 4.08 1 0 1 C0 0.67 0 0.34 0 0 Z " fill="#000102" transform="translate(396,184)"/>
<path d="M0 0 C3.96 0 7.92 0 12 0 C12 0.33 12 0.66 12 1 C8.04 1 4.08 1 0 1 C0 0.67 0 0.34 0 0 Z " fill="#000102" transform="translate(207,184)"/>
<path d="M0 0 C3.96 0 7.92 0 12 0 C12 0.33 12 0.66 12 1 C8.04 1 4.08 1 0 1 C0 0.67 0 0.34 0 0 Z " fill="#000102" transform="translate(337,183)"/>
<path d="M0 0 C3.63 0 7.26 0 11 0 C11 0.33 11 0.66 11 1 C7.37 1 3.74 1 0 1 C0 0.67 0 0.34 0 0 Z " fill="#000102" transform="translate(298,183)"/>
<path d="M0 0 C1.98 0 3.96 0 6 0 C6 0.33 6 0.66 6 1 C4.02 1 2.04 1 0 1 C0 0.67 0 0.34 0 0 Z " fill="#000102" transform="translate(514,131)"/>
<path d="M0 0 C1.65 0 3.3 0 5 0 C5 0.33 5 0.66 5 1 C3.35 1 1.7 1 0 1 C0 0.67 0 0.34 0 0 Z " fill="#000102" transform="translate(408,183)"/>
<path d="M0 0 C1.65 0 3.3 0 5 0 C5 0.33 5 0.66 5 1 C3.35 1 1.7 1 0 1 C0 0.67 0 0.34 0 0 Z " fill="#000102" transform="translate(390,183)"/>
<path d="M0 0 C0.33 0 0.66 0 1 0 C1 1.65 1 3.3 1 5 C0.67 5 0.34 5 0 5 C0 3.35 0 1.7 0 0 Z " fill="#000102" transform="translate(389,161)"/>
<path d="M0 0 C4 1 4 1 4 1 Z " fill="#000102" transform="translate(1015,345)"/>
<path d="M0 0 C4 1 4 1 4 1 Z " fill="#000102" transform="translate(984,345)"/>
<path d="M0 0 C4 1 4 1 4 1 Z " fill="#000102" transform="translate(220,183)"/>
<path d="M0 0 C4 1 4 1 4 1 Z " fill="#000102" transform="translate(202,183)"/>
<path d="M0 0 C1 4 1 4 1 4 Z " fill="#000102" transform="translate(697,159)"/>
<path d="M0 0 C1 4 1 4 1 4 Z " fill="#000102" transform="translate(789,103)"/>
<path d="M0 0 C1 4 1 4 1 4 Z " fill="#000102" transform="translate(805,40)"/>
<path d="M0 0 C3 1 3 1 3 1 Z " fill="#000102" transform="translate(980,344)"/>
<path d="" fill="#000102" transform="translate(0,0)"/>
<path d="" fill="#000102" transform="translate(0,0)"/>
<path d="M0 0 C3 1 3 1 3 1 Z " fill="#000102" transform="translate(524,183)"/>
<path d="M0 0 C3 1 3 1 3 1 Z " fill="#000102" transform="translate(507,183)"/>
<path d="M0 0 C3 1 3 1 3 1 Z " fill="#000102" transform="translate(503,182)"/>
<path d="" fill="#000102" transform="translate(0,0)"/>
<path d="" fill="#000102" transform="translate(0,0)"/>
<path d="" fill="#000102" transform="translate(0,0)"/>
<path d="" fill="#000102" transform="translate(0,0)"/>
<path d="" fill="#000102" transform="translate(0,0)"/>
<path d="" fill="#000102" transform="translate(0,0)"/>
<path d="" fill="#000102" transform="translate(0,0)"/>
<path d="M0 0 C3 1 3 1 3 1 Z " fill="#000102" transform="translate(214,131)"/>
<path d="" fill="#000102" transform="translate(0,0)"/>
<path d="" fill="#000102" transform="translate(0,0)"/>
<path d="" fill="#000102" transform="translate(0,0)"/>
<path d="" fill="#000102" transform="translate(0,0)"/>
<path d="" fill="#000102" transform="translate(0,0)"/>
<path d="" fill="#000102" transform="translate(0,0)"/>
<path d="" fill="#000102" transform="translate(0,0)"/>
<path d="" fill="#000102" transform="translate(0,0)"/>
<path d="" fill="#000102" transform="translate(0,0)"/>
<path d="" fill="#000102" transform="translate(0,0)"/>
<path d="" fill="#000102" transform="translate(0,0)"/>
<path d="" fill="#000102" transform="translate(0,0)"/>
<path d="" fill="#000102" transform="translate(0,0)"/>
<path d="M0 0 C2 1 2 1 2 1 Z " fill="#000102" transform="translate(1128,261)"/>
<path d="" fill="#000102" transform="translate(0,0)"/>
<path d="" fill="#000102" transform="translate(0,0)"/>
<path d="" fill="#000102" transform="translate(0,0)"/>
<path d="M0 0 C2 1 2 1 2 1 Z " fill="#000102" transform="translate(528,182)"/>
<path d="M0 0 C2 1 2 1 2 1 Z " fill="#000102" transform="translate(199,182)"/>
<path d="" fill="#000102" transform="translate(0,0)"/>
<path d="M0 0 C2 1 2 1 2 1 Z " fill="#000102" transform="translate(198,153)"/>
<path d="" fill="#000102" transform="translate(0,0)"/>
<path d="" fill="#000102" transform="translate(0,0)"/>
<path d="" fill="#000102" transform="translate(0,0)"/>
<path d="" fill="#000102" transform="translate(0,0)"/>
<path d="M0 0 C2 1 2 1 2 1 Z " fill="#000102" transform="translate(521,132)"/>
<path d="M0 0 C2 1 2 1 2 1 Z " fill="#000102" transform="translate(511,132)"/>
<path d="M0 0 C2 1 2 1 2 1 Z " fill="#000102" transform="translate(207,131)"/>
<path d="" fill="#000102" transform="translate(0,0)"/>
<path d="" fill="#000102" transform="translate(0,0)"/>
<path d="" fill="#000102" transform="translate(0,0)"/>
<path d="" fill="#A65A41" transform="translate(0,0)"/>
<path d="" fill="#000102" transform="translate(0,0)"/>
<path d="" fill="#000102" transform="translate(0,0)"/>
<path d="" fill="#000102" transform="translate(0,0)"/>
<path d="" fill="#000102" transform="translate(0,0)"/>
<path d="" fill="#000102" transform="translate(0,0)"/>
<path d="" fill="#000102" transform="translate(0,0)"/>
<path d="" fill="#000102" transform="translate(0,0)"/>
<path d="" fill="#000102" transform="translate(0,0)"/>
<path d="" fill="#000102" transform="translate(0,0)"/>
<path d="" fill="#000102" transform="translate(0,0)"/>
<path d="" fill="#000102" transform="translate(0,0)"/>
<path d="" fill="#000102" transform="translate(0,0)"/>
<path d="" fill="#000102" transform="translate(0,0)"/>
<path d="" fill="#000102" transform="translate(0,0)"/>
<path d="" fill="#A65A41" transform="translate(0,0)"/>
<path d="" fill="#000102" transform="translate(0,0)"/>
<path d="" fill="#A65A41" transform="translate(0,0)"/>
<path d="" fill="#000102" transform="translate(0,0)"/>
<path d="" fill="#000102" transform="translate(0,0)"/>
<path d="" fill="#000102" transform="translate(0,0)"/>
<path d="" fill="#000102" transform="translate(0,0)"/>
<path d="" fill="#000102" transform="translate(0,0)"/>
<path d="" fill="#000102" transform="translate(0,0)"/>
<path d="" fill="#000102" transform="translate(0,0)"/>
<path d="" fill="#000102" transform="translate(0,0)"/>
<path d="" fill="#000102" transform="translate(0,0)"/>
<path d="" fill="#000102" transform="translate(0,0)"/>
<path d="" fill="#000102" transform="translate(0,0)"/>
<path d="" fill="#A65A41" transform="translate(0,0)"/>
<path d="" fill="#000102" transform="translate(0,0)"/>
<path d="" fill="#000102" transform="translate(0,0)"/>
<path d="" fill="#000102" transform="translate(0,0)"/>
<path d="" fill="#000102" transform="translate(0,0)"/>
<path d="" fill="#000102" transform="translate(0,0)"/>
<path d="" fill="#000102" transform="translate(0,0)"/>
<path d="" fill="#000102" transform="translate(0,0)"/>
<path d="" fill="#000102" transform="translate(0,0)"/>
<path d="" fill="#000102" transform="translate(0,0)"/>
<path d="" fill="#000102" transform="translate(0,0)"/>
<path d="" fill="#000102" transform="translate(0,0)"/>
<path d="" fill="#000102" transform="translate(0,0)"/>
<path d="" fill="#000102" transform="translate(0,0)"/>
<path d="" fill="#000102" transform="translate(0,0)"/>
<path d="" fill="#000102" transform="translate(0,0)"/>
<path d="" fill="#000102" transform="translate(0,0)"/>
<path d="" fill="#000102" transform="translate(0,0)"/>
<path d="" fill="#000102" transform="translate(0,0)"/>
<path d="" fill="#000102" transform="translate(0,0)"/>
<path d="" fill="#000102" transform="translate(0,0)"/>
<path d="" fill="#000102" transform="translate(0,0)"/>
<path d="" fill="#000102" transform="translate(0,0)"/>
<path d="" fill="#000102" transform="translate(0,0)"/>
<path d="" fill="#000102" transform="translate(0,0)"/>
<path d="" fill="#000102" transform="translate(0,0)"/>
<path d="" fill="#000102" transform="translate(0,0)"/>
<path d="" fill="#000102" transform="translate(0,0)"/>
<path d="" fill="#000102" transform="translate(0,0)"/>
<path d="" fill="#000102" transform="translate(0,0)"/>
<path d="" fill="#000102" transform="translate(0,0)"/>
<path d="" fill="#000102" transform="translate(0,0)"/>
<path d="" fill="#000102" transform="translate(0,0)"/>
<path d="" fill="#000102" transform="translate(0,0)"/>
<path d="" fill="#000102" transform="translate(0,0)"/>
<path d="" fill="#000102" transform="translate(0,0)"/>
<path d="" fill="#000102" transform="translate(0,0)"/>
<path d="" fill="#000102" transform="translate(0,0)"/>
<path d="" fill="#000102" transform="translate(0,0)"/>
<path d="" fill="#000102" transform="translate(0,0)"/>
<path d="" fill="#000102" transform="translate(0,0)"/>
<path d="" fill="#000102" transform="translate(0,0)"/>
<path d="" fill="#000102" transform="translate(0,0)"/>
<path d="" fill="#000102" transform="translate(0,0)"/>
<path d="" fill="#A65A41" transform="translate(0,0)"/>
<path d="" fill="#000102" transform="translate(0,0)"/>
<path d="" fill="#000102" transform="translate(0,0)"/>
<path d="" fill="#000102" transform="translate(0,0)"/>
<path d="" fill="#000102" transform="translate(0,0)"/>
<path d="" fill="#000102" transform="translate(0,0)"/>
<path d="" fill="#000102" transform="translate(0,0)"/>
<path d="" fill="#000102" transform="translate(0,0)"/>
<path d="" fill="#000102" transform="translate(0,0)"/>
<path d="" fill="#000102" transform="translate(0,0)"/>
<path d="" fill="#000102" transform="translate(0,0)"/>
<path d="" fill="#000102" transform="translate(0,0)"/>
<path d="" fill="#000102" transform="translate(0,0)"/>
<path d="" fill="#000102" transform="translate(0,0)"/>
<path d="" fill="#000102" transform="translate(0,0)"/>
<path d="" fill="#000102" transform="translate(0,0)"/>
<path d="" fill="#000102" transform="translate(0,0)"/>
<path d="" fill="#000102" transform="translate(0,0)"/>
<path d="" fill="#000102" transform="translate(0,0)"/>
<path d="" fill="#000102" transform="translate(0,0)"/>
<path d="" fill="#000102" transform="translate(0,0)"/>
<path d="" fill="#000102" transform="translate(0,0)"/>
<path d="" fill="#000102" transform="translate(0,0)"/>
<path d="" fill="#A65A41" transform="translate(0,0)"/>
<path d="" fill="#000102" transform="translate(0,0)"/>
<path d="" fill="#A65A41" transform="translate(0,0)"/>
</svg>
